# AST/ASF file generated using VICON BodyLanguage
# -----------------------------------------------
:version 1.10
:name VICON
:units
  mass 1.0
  length 0.45
  angle deg
:documentation
   .ast/.asf automatically generated from VICON data using
   VICON BodyBuilder and BodyLanguage model FoxedUp or BRILLIANT.MOD
:root
   order TX TY TZ RX RY RZ
   axis XYZ
   position 0 0 0  
   orientation 0 0 0 
:bonedata
  begin
     id 1 
     name lhipjoint
     direction 0.521452 -0.77106 0.36545 
     length 2.0933 
     axis 0 0 0  XYZ
  end
  begin
     id 2 
     name lfemur
     direction 0.34202 -0.939693 0  
     length 6.83441  
     axis 0 0 20  XYZ
    dof rx ry rz
    limits (-160.0 20.0)
           (-70.0 70.0)
           (-60.0 70.0)
  end
  begin
     id 3 
     name ltibia
     direction 0.34202 -0.939693 0   
     length 7.28749   
     axis 0 0 20   XYZ
    dof rx
    limits (-10.0 170.0)
  end
  begin
     id 4 
     name lfoot
     direction 0.100608 -0.276418 0.955757   
     length 1.52195   
     axis -90 7.62852e-016 20   XYZ
    dof rx rz
    limits (-45.0 90.0)
           (-70.0 20.0)
  end
  begin
     id 5 
     name ltoes
     direction 1.53558e-011 -4.21907e-011 1   
     length 0.770459   
     axis -90 7.62852e-016 20   XYZ
    dof rx
    limits (-90.0 20.0)
  end
  begin
     id 6 
     name rhipjoint
     direction -0.488071 -0.788702 0.373812   
     length 2.04648  
     axis 0 0 0  XYZ 
  end
  begin
     id 7 
     name rfemur
     direction -0.34202 -0.939693 0   
     length 6.92583   
     axis 0 0 -20   XYZ
    dof rx ry rz
    limits (-160.0 20.0)
           (-70.0 70.0)
           (-70.0 60.0)
  end
  begin
     id 8 
     name rtibia
     direction -0.34202 -0.939693 0   
     length 7.41043   
     axis 0 0 -20   XYZ
    dof rx
    limits (-10.0 170.0)
 end
 begin
     id 9 
     name rfoot
     direction -0.0784433 -0.215521 0.973343   
     length 1.67708  
     axis -90 -7.62852e-016 -20   XYZ
    dof rx rz
    limits (-45.0 90.0)
           (-20.0 70.0)
  end
  begin
     id 10 
     name rtoes
     direction -1.53551e-011 -4.21842e-011 1   
     length 0.849787   
     axis -90 -7.62852e-016 -20   XYZ
    dof rx
    limits (-90.0 20.0)
  end
  begin
     id 11 
     name lowerback
     direction -0.0122332 0.997575 -0.0685192   
     length 1.98724   
     axis 0 0 0   XYZ
    dof rx ry rz
    limits (-20.0 45.0)
           (-30.0 30.0)
           (-30.0 30.0)
  end
  begin
     id 12 
     name upperback
     direction 0.0182347 0.999724 -0.0148421   
     length 1.99029   
     axis 0 0 0   XYZ
    dof rx ry rz
    limits (-20.0 45.0)
           (-30.0 30.0)
           (-30.0 30.0)
  end
  begin
     id 13 
     name thorax
     direction 0.0242908 0.99956 0.0170184   
     length 1.99573   
     axis 0 0 0   XYZ
    dof rx ry rz
    limits (-20.0 45.0)
           (-30.0 30.0)
           (-30.0 30.0)
  end
  begin
     id 14 
     name lowerneck
     direction 0.0654488 0.985533 0.156338   
     length 1.4285   
     axis 0 0 0   XYZ
    dof rx ry rz
    limits (-20.0 45.0)
           (-30.0 30.0)
           (-30.0 30.0)
  end
  begin
     id 15 
     name upperneck
     direction -0.02953 0.998556 -0.0448842   
     length 1.44709   
     axis 0 0 0   XYZ
    dof rx ry rz
    limits (-20.0 45.0)
           (-30.0 30.0)
           (-30.0 30.0)
  end
  begin
     id 16
     name head
     direction -0.0155588 0.999386 -0.0314063  
     length 1.44689  
     axis 0 0 0   XYZ
    dof rx ry rz
    limits (-20.0 45.0)
           (-30.0 30.0)
           (-30.0 30.0)
  end
  begin
     id 17 
     name lclavicle
     direction 0.968229 0.236071 -0.0824755  
     length 3.60593  
     axis 0 0 0   XYZ
    dof ry rz
    limits (-20.0 10.0)
           (0.0 20.0)
  end
  begin
     id 18 
     name lhumerus
     direction 1 -4.48968e-011 7.8138e-029   
     length 5.06035   
     axis 180 -30 -90   XYZ
    dof rx ry rz
    limits (-60.0 90.0)
           (-90.0 90.0)
           (-90.0 90.0)
  end
  begin
     id 19
     name lradius
     direction 1 -4.48967e-011 9.02887e-028   
     length 3.1478   
     axis 180 -30 -90   XYZ
    dof rx
    limits (-10.0 170.0)
  end
  begin
     id 20
     name lwrist
     direction 1 -4.48961e-011 7.20928e-028   
     length 1.5739   
     axis -5.52449e-016 90 90   XYZ
    dof ry
    limits (-180.0 0.0)
 end
  begin
     id 21 
     name lhand
     direction 1 -4.48972e-011 1.44186e-027   
     length 0.606747   
     axis -9.20027e-016 90 90   XYZ
    dof rx rz
    limits (-90.0 90.0)
           (-45.0 45.0)
  end
  begin
     id 22 
     name lfingers
     direction 1 -4.48943e-011 2.88371e-027   
     length 0.489175   
     axis -1.84005e-015 90 90   XYZ
    dof rx
    limits (0.0 90.0)
  end
  begin
     id 23
     name lthumb
     direction 0.707107 -6.34917e-011 0.707107   
     length 0.70236   
     axis -90 45 2.85299e-015   XYZ
    dof rx rz
    limits (-45.0 45.0)
           (-45.0 45.0)
  end
  begin
     id 24 
     name rclavicle
     direction -0.978165 0.207816 0.0022268   
     length 3.35425  
     axis 0 0 0   XYZ 
    dof ry rz
    limits (-10.0 20.0)
           (-20.0 0.0)
  end
  begin
     id 25 
     name rhumerus
     direction -1 -4.48964e-011 -4.02159e-027  
     length 5.12273   
     axis 180 30 90   XYZ
    dof rx ry rz
    limits (-90.0 60.0)
           (-90.0 90.0)
           (-90.0 90.0)
  end
  begin
     id 26 
     name rradius
     direction -1 -4.48966e-011 1.62746e-027   
     length 3.422   
     axis 180 30 90   XYZ
    dof rx
    limits (-10.0 170.0)
  end
  begin
     id 27 
     name rwrist
     direction -1 -4.4896e-011 7.20928e-028   
     length 1.711   
     axis -5.52449e-016 -90 -90   XYZ
    dof ry
    limits (-180.0 0.0)
  end
  begin
     id 28
     name rhand
     direction -1 -4.48979e-011 1.44186e-027   
     length 0.704599   
     axis -9.20027e-016 -90 -90   XYZ
    dof rx rz
    limits (-90.0 90.0)
           (-45.0 45.0)
  end
  begin
     id 29
     name rfingers
     direction -1 -4.48962e-011 2.88371e-027   
     length 0.568066   
     axis -1.84005e-015 -90 -90   XYZ
    dof rx
    limits (0.0 90.0)
  end
  begin
     id 30
     name rthumb
     direction -0.707107 -6.34949e-011 0.707107   
     length 0.815633   
     axis -90 -45 -2.85299e-015   XYZ
    dof rx rz
    limits (-45.0 45.0)
           (-45.0 45.0)
  end
:hierarchy
  begin
    root lhipjoint rhipjoint lowerback
    lhipjoint lfemur
    lfemur ltibia
    ltibia lfoot
    lfoot ltoes
    rhipjoint rfemur
    rfemur rtibia
    rtibia rfoot
    rfoot rtoes
    lowerback upperback
    upperback thorax
    thorax lowerneck lclavicle rclavicle
    lowerneck upperneck
    upperneck head
    lclavicle lhumerus
    lhumerus lradius
    lradius lwrist
    lwrist lhand lthumb
    lhand lfingers
    rclavicle rhumerus
    rhumerus rradius
    rradius rwrist
    rwrist rhand rthumb
    rhand rfingers
  end

#!OML:ASF E:\id_vita\Project 1\Capture day 1\Session 1\Male1.ASF
:FULLY-SPECIFIED
:DEGREES
600
root 34.5526 13.5776 -0.475564 -120.676 -73.2006 181.156
lowerback 10.8427 2.57775 -9.83145
upperback 3.17102 2.25076 0.868522
thorax -3.15184 1.09699 6.1573
lowerneck -17.9253 -2.24815 -4.8057
upperneck 24.1352 1.47455 -15.7948
head 11.0471 -1.95646 -4.82543
rclavicle 2.18663e-014 8.68689e-014
rhumerus 56.9432 15.6928 -47.3205
rradius 25.8694
rwrist 27.5487
rhand -18.8501 37.8373
rfingers 7.12502
rthumb 7.4498 7.98848
lclavicle 2.18663e-014 8.68689e-014
lhumerus 59.7182 -18.4574 60.3032
lradius 21.4156
lwrist -20.2832
lhand -45.1747 80.1079
lfingers 7.12502
lthumb -17.9518 250.701
rfemur -37.1596 0.679557 10.4193
rtibia 49.573
rfoot -1.85629 22.4485
rtoes 15.3502
lfemur -73.3807 -0.142756 -19.8024
ltibia 73.6172
lfoot -47.2949 3.54759
ltoes -6.8397
601
root 34.4753 13.6146 -0.47395 -120.822 -73.2004 180.763
lowerback 11.545 2.7023 -9.75689
upperback 3.47865 2.34091 0.926192
thorax -3.22871 1.12413 6.15041
lowerneck -17.9905 -2.29331 -4.65385
upperneck 24.0629 1.40204 -15.9614
head 11.0291 -1.99269 -4.92206
rclavicle -4.21423e-014 -2.15681e-014
rhumerus 57.1494 15.2503 -47.2946
rradius 25.7255
rwrist 27.9864
rhand -18.8094 38.0009
rfingers 7.12502
rthumb 7.4891 8.15349
lclavicle -4.21423e-014 -2.15681e-014
lhumerus 59.9221 -18.3213 60.7282
lradius 21.3553
lwrist -20.7879
lhand -44.6711 81.1485
lfingers 7.12502
lthumb -17.4672 249.616
rfemur -37.4941 -0.16248 10.5833
rtibia 50.8641
rfoot -1.51223 25.7153
rtoes 18.7171
lfemur -71.8235 -1.17414 -19.436
ltibia 72.3806
lfoot -47.6514 4.93134
ltoes -6.03092
602
root 34.4025 13.6421 -0.472968 -121.101 -73.0934 180.494
lowerback 12.2038 2.82771 -9.70759
upperback 3.84079 2.43066 0.939809
thorax -3.22095 1.14328 6.11175
lowerneck -17.9318 -2.32608 -4.61257
upperneck 23.697 1.30976 -16.0098
head 10.8731 -2.0102 -4.93361
rclavicle -4.92986e-014 -3.42904e-014
rhumerus 57.4006 14.7606 -47.482
rradius 25.5972
rwrist 28.4528
rhand -18.7661 38.1548
rfingers 7.12502
rthumb 7.53091 8.30884
lclavicle -4.92986e-014 -3.42904e-014
lhumerus 60.0032 -17.9921 61.2309
lradius 21.508
lwrist -21.2527
lhand -44.3378 80.894
lfingers 7.12502
lthumb -17.1464 249.843
rfemur -37.8332 -0.914645 10.7086
rtibia 52.0195
rfoot -1.41247 28.7527
rtoes 22.2638
lfemur -70.2313 -2.10628 -19.1773
ltibia 71.0892
lfoot -47.3561 6.17141
ltoes -4.40402
603
root 34.3224 13.6794 -0.473515 -121.039 -72.8684 179.767
lowerback 12.9454 2.92826 -9.80067
upperback 4.26929 2.45455 0.896883
thorax -3.17611 1.12301 6.10264
lowerneck -17.761 -2.51436 -4.97109
upperneck 23.3654 0.982476 -15.4897
head 10.6845 -2.09658 -4.69361
rclavicle -1.19271e-015 2.04748e-014
rhumerus 57.6235 14.1981 -48.0264
rradius 25.5536
rwrist 29.1263
rhand -18.753 38.3612
rfingers 7.12502
rthumb 7.5436 8.51577
lclavicle -1.19271e-015 2.04748e-014
lhumerus 60.3896 -17.7665 61.3814
lradius 21.4842
lwrist -21.2145
lhand -44.6601 80.4245
lfingers 7.12502
lthumb -17.4566 250.339
rfemur -38.1565 -1.83968 10.7949
rtibia 53.0947
rfoot -0.740098 31.6179
rtoes 24.5519
lfemur -68.4653 -3.13577 -19.1087
ltibia 69.6832
lfoot -47.5363 7.5119
ltoes -1.71858
604
root 34.2256 13.7373 -0.47067 -121.121 -72.8581 178.762
lowerback 14.2709 3.03494 -9.63225
upperback 4.73066 2.44721 0.893702
thorax -3.39719 1.09366 5.97921
lowerneck -17.9886 -2.49698 -4.59844
upperneck 23.2345 0.968139 -15.7143
head 10.6782 -2.09464 -4.84141
rclavicle 2.98177e-014 4.72114e-014
rhumerus 58.0928 13.9918 -47.5495
rradius 25.4187
rwrist 28.907
rhand -18.6952 38.2916
rfingers 7.12502
rthumb 7.59933 8.4481
lclavicle 2.98177e-014 4.72114e-014
lhumerus 60.8488 -17.7087 61.5601
lradius 21.2675
lwrist -21.1831
lhand -44.9314 80.6512
lfingers 7.12502
lthumb -17.7177 250.136
rfemur -38.0698 -3.12521 11.1458
rtibia 54.0622
rfoot 1.69218 34.8485
rtoes 27.422
lfemur -66.1897 -4.47054 -18.9144
ltibia 68.1262
lfoot -47.4123 8.86174
ltoes 0.475962
